/* XPM */
static char * qfull_xpm[] = {
"16 16 29 1",
" 	c None",
".	c #000000",
"+	c #090000",
"@	c #C10000",
"#	c #B60000",
"$	c #480000",
"%	c #D10000",
"&	c #962323",
"*	c #2C0000",
"=	c #FA0000",
"-	c #FF0000",
";	c #FF4848",
">	c #FFFAFA",
",	c #F97171",
"'	c #6E0000",
")	c #FF0606",
"!	c #FF7C7C",
"~	c #FDA9A9",
"{	c #FE7F7F",
"]	c #FF2E2E",
"^	c #6B0000",
"/	c #FF0909",
"(	c #FFBCBC",
"_	c #FEB5B5",
":	c #FD0000",
"<	c #FF0202",
"[	c #FF1E1E",
"}	c #FC1D1D",
"|	c #8F0000",
"                ",
"                ",
"   .++.  ....   ",
"  . @# ..    .  ",
" .$%  &*      . ",
"  =-;>,        .",
".')!~{]        .",
".^/(_::        .",
".'<[}::        .",
" .|           . ",
"                ",
"   .        .   ",
"    .      .    ",
"                ",
"      .  .      ",
"       ..       "};
